<svg width="241" height="51" viewBox="0 0 241 51" fill="none" xmlns="http://www.w3.org/2000/svg">
<rect width="241" height="51" fill="white"/>
<path d="M164 16H162C157 16 155 18 155 23V29C155 34 157 36 162 36H168C173 36 175 34 175 29V27" stroke="#292D32" stroke-width="1.5" stroke-linecap="round" stroke-linejoin="round"/>
<path d="M169.04 17.02L161.16 24.9C160.86 25.2 160.56 25.79 160.5 26.22L160.07 29.23C159.91 30.32 160.68 31.08 161.77 30.93L164.78 30.5C165.2 30.44 165.79 30.14 166.1 29.84L173.98 21.96C175.34 20.6 175.98 19.02 173.98 17.02C171.98 15.02 170.4 15.66 169.04 17.02Z" stroke="#292D32" stroke-width="1.5" stroke-miterlimit="10" stroke-linecap="round" stroke-linejoin="round"/>
<path d="M167.91 18.15C168.58 20.54 170.45 22.41 172.85 23.09" stroke="#292D32" stroke-width="1.5" stroke-miterlimit="10" stroke-linecap="round" stroke-linejoin="round"/>
<path d="M124.62 32.81C124.28 32.93 123.72 32.93 123.38 32.81C120.48 31.82 114 27.69 114 20.69C114 17.6 116.49 15.1 119.56 15.1C121.38 15.1 122.99 15.98 124 17.34C125.01 15.98 126.63 15.1 128.44 15.1C131.51 15.1 134 17.6 134 20.69C134 27.69 127.52 31.82 124.62 32.81Z" stroke="#292D32" stroke-width="1.5" stroke-linecap="round" stroke-linejoin="round"/>
<path d="M74 34C79.5 34 84 29.5 84 24C84 18.5 79.5 14 74 14C68.5 14 64 18.5 64 24C64 29.5 68.5 34 74 34Z" stroke="#292D32" stroke-width="1.5" stroke-linecap="round" stroke-linejoin="round"/>
<path d="M77.9965 24H78.0054" stroke="#292D32" stroke-width="2" stroke-linecap="round" stroke-linejoin="round"/>
<path d="M73.9955 24H74.0045" stroke="#292D32" stroke-width="2" stroke-linecap="round" stroke-linejoin="round"/>
<path d="M69.9945 24H70.0035" stroke="#292D32" stroke-width="2" stroke-linecap="round" stroke-linejoin="round"/>
<path d="M34 20.52V15.98C34 14.57 33.36 14 31.77 14H27.73C26.14 14 25.5 14.57 25.5 15.98V20.51C25.5 21.93 26.14 22.49 27.73 22.49H31.77C33.36 22.5 34 21.93 34 20.52Z" stroke="#292D32" stroke-width="1.5" stroke-linecap="round" stroke-linejoin="round"/>
<path d="M34 31.77V27.73C34 26.14 33.36 25.5 31.77 25.5H27.73C26.14 25.5 25.5 26.14 25.5 27.73V31.77C25.5 33.36 26.14 34 27.73 34H31.77C33.36 34 34 33.36 34 31.77Z" stroke="#292D32" stroke-width="1.5" stroke-linecap="round" stroke-linejoin="round"/>
<path d="M22.5 20.52V15.98C22.5 14.57 21.86 14 20.27 14H16.23C14.64 14 14 14.57 14 15.98V20.51C14 21.93 14.64 22.49 16.23 22.49H20.27C21.86 22.5 22.5 21.93 22.5 20.52Z" stroke="#292D32" stroke-width="1.5" stroke-linecap="round" stroke-linejoin="round"/>
<path d="M22.5 31.77V27.73C22.5 26.14 21.86 25.5 20.27 25.5H16.23C14.64 25.5 14 26.14 14 27.73V31.77C14 33.36 14.64 34 16.23 34H20.27C21.86 34 22.5 33.36 22.5 31.77Z" stroke="#292D32" stroke-width="1.5" stroke-linecap="round" stroke-linejoin="round"/>
<path d="M206 30V27" stroke="#292D32" stroke-width="1.5" stroke-linecap="round" stroke-linejoin="round"/>
<path d="M204.07 14.82L197.14 20.37C196.36 20.99 195.86 22.3 196.03 23.28L197.36 31.24C197.6 32.66 198.96 33.81 200.4 33.81H211.6C213.03 33.81 214.4 32.65 214.64 31.24L215.97 23.28C216.13 22.3 215.63 20.99 214.86 20.37L207.93 14.83C206.86 13.97 205.13 13.97 204.07 14.82Z" stroke="#292D32" stroke-width="1.5" stroke-linecap="round" stroke-linejoin="round"/>
</svg>
